M48
; DRILL file {KiCad (5.1.10)-1} date 09/17/21 22:01:31
; FORMAT={-:-/ absolute / inch / decimal}
; #@! TF.CreationDate,2021-09-17T22:01:31+03:00
; #@! TF.GenerationSoftware,Kicad,Pcbnew,(5.1.10)-1
; #@! TF.FileFunction,Plated,1,2,PTH
FMAT,2
INCH
T1C0.0118
T2C0.0236
T3C0.0394
%
G90
G05
T1
X3.2827Y-3.1339
X3.3217Y-3.6906
X3.5138Y-3.1724
X3.5441Y-3.3992
X3.5819Y-3.4795
X3.587Y-3.7075
X3.6106Y-3.4012
X3.6622Y-3.4846
X3.6783Y-3.076
X3.6902Y-3.5398
X3.6906Y-3.3386
X3.7043Y-3.4591
X3.7354Y-3.3169
X3.763Y-3.5362
X3.7677Y-3.0772
X3.8165Y-3.3165
X3.8413Y-3.5437
X3.8417Y-2.8732
X3.8539Y-3.078
X3.889Y-3.3272
X3.8921Y-3.2091
X3.8988Y-3.7445
X3.9098Y-3.5465
X3.9154Y-3.3783
X3.9154Y-3.4843
X3.9598Y-2.8343
X3.9618Y-3.3799
X3.9673Y-3.4941
X4.026Y-3.7295
X4.0323Y-3.3969
X4.0374Y-3.9685
X4.0756Y-3.074
X4.0992Y-3.6724
X4.215Y-3.302
X4.2894Y-3.5858
X4.3102Y-3.1945
X4.4177Y-3.7154
X4.5457Y-3.463
X4.6827Y-3.0602
X4.7083Y-3.3618
X4.7083Y-3.4614
X4.7087Y-3.6618
X4.7098Y-3.1614
X4.7724Y-3.8098
X4.822Y-2.7697
T3
X4.9271Y-2.8619
X4.9271Y-2.9619
X4.9271Y-3.0619
X4.9271Y-3.1619
X4.9271Y-3.2619
X4.9271Y-3.3619
X4.9271Y-3.4619
X4.9271Y-3.5619
X4.9271Y-3.6619
X4.9271Y-3.7619
X4.9271Y-3.8619
T2
G00X3.2685Y-3.2509
M15
G01X3.2449Y-3.2509
M16
G05
G00X3.2685Y-3.5911
M15
G01X3.2449Y-3.5911
M16
G05
G00X3.4429Y-3.2509
M15
G01X3.3996Y-3.2509
M16
G05
G00X3.4429Y-3.5911
M15
G01X3.3996Y-3.5911
M16
G05
T0
M30
