%TF.GenerationSoftware,KiCad,Pcbnew,(5.1.10)-1*%
%TF.CreationDate,2021-09-17T22:01:12+03:00*%
%TF.ProjectId,G800Interface,47383030-496e-4746-9572-666163652e6b,rev?*%
%TF.SameCoordinates,Original*%
%TF.FileFunction,Soldermask,Top*%
%TF.FilePolarity,Negative*%
%FSLAX46Y46*%
G04 Gerber Fmt 4.6, Leading zero omitted, Abs format (unit mm)*
G04 Created by KiCad (PCBNEW (5.1.10)-1) date 2021-09-17 22:01:12*
%MOMM*%
%LPD*%
G01*
G04 APERTURE LIST*
%ADD10R,0.450000X1.750000*%
%ADD11C,0.100000*%
%ADD12R,1.450000X0.600000*%
%ADD13R,1.450000X0.300000*%
%ADD14O,2.100000X1.000000*%
%ADD15C,0.650000*%
%ADD16O,1.600000X1.000000*%
%ADD17O,1.700000X1.700000*%
%ADD18R,1.700000X1.700000*%
%ADD19C,3.000000*%
G04 APERTURE END LIST*
%TO.C,C5*%
G36*
G01*
X104630000Y-91745000D02*
X104630000Y-92695000D01*
G75*
G02*
X104380000Y-92945000I-250000J0D01*
G01*
X103880000Y-92945000D01*
G75*
G02*
X103630000Y-92695000I0J250000D01*
G01*
X103630000Y-91745000D01*
G75*
G02*
X103880000Y-91495000I250000J0D01*
G01*
X104380000Y-91495000D01*
G75*
G02*
X104630000Y-91745000I0J-250000D01*
G01*
G37*
G36*
G01*
X106530000Y-91745000D02*
X106530000Y-92695000D01*
G75*
G02*
X106280000Y-92945000I-250000J0D01*
G01*
X105780000Y-92945000D01*
G75*
G02*
X105530000Y-92695000I0J250000D01*
G01*
X105530000Y-91745000D01*
G75*
G02*
X105780000Y-91495000I250000J0D01*
G01*
X106280000Y-91495000D01*
G75*
G02*
X106530000Y-91745000I0J-250000D01*
G01*
G37*
%TD*%
D10*
%TO.C,U1*%
X110950600Y-89854200D03*
X110300600Y-89854200D03*
X109650600Y-89854200D03*
X109000600Y-89854200D03*
X108350600Y-89854200D03*
X107700600Y-89854200D03*
X107050600Y-89854200D03*
X106400600Y-89854200D03*
X105750600Y-89854200D03*
X105100600Y-89854200D03*
X104450600Y-89854200D03*
X103800600Y-89854200D03*
X103150600Y-89854200D03*
X102500600Y-89854200D03*
X102500600Y-82654200D03*
X103150600Y-82654200D03*
X103800600Y-82654200D03*
X104450600Y-82654200D03*
X105100600Y-82654200D03*
X105750600Y-82654200D03*
X106400600Y-82654200D03*
X107050600Y-82654200D03*
X107700600Y-82654200D03*
X108350600Y-82654200D03*
X109000600Y-82654200D03*
X109650600Y-82654200D03*
X110300600Y-82654200D03*
X110950600Y-82654200D03*
%TD*%
%TO.C,R15*%
G36*
G01*
X106850001Y-96062500D02*
X105949999Y-96062500D01*
G75*
G02*
X105700000Y-95812501I0J249999D01*
G01*
X105700000Y-95287499D01*
G75*
G02*
X105949999Y-95037500I249999J0D01*
G01*
X106850001Y-95037500D01*
G75*
G02*
X107100000Y-95287499I0J-249999D01*
G01*
X107100000Y-95812501D01*
G75*
G02*
X106850001Y-96062500I-249999J0D01*
G01*
G37*
G36*
G01*
X106850001Y-97887500D02*
X105949999Y-97887500D01*
G75*
G02*
X105700000Y-97637501I0J249999D01*
G01*
X105700000Y-97112499D01*
G75*
G02*
X105949999Y-96862500I249999J0D01*
G01*
X106850001Y-96862500D01*
G75*
G02*
X107100000Y-97112499I0J-249999D01*
G01*
X107100000Y-97637501D01*
G75*
G02*
X106850001Y-97887500I-249999J0D01*
G01*
G37*
%TD*%
%TO.C,R14*%
G36*
G01*
X108960001Y-96052500D02*
X108059999Y-96052500D01*
G75*
G02*
X107810000Y-95802501I0J249999D01*
G01*
X107810000Y-95277499D01*
G75*
G02*
X108059999Y-95027500I249999J0D01*
G01*
X108960001Y-95027500D01*
G75*
G02*
X109210000Y-95277499I0J-249999D01*
G01*
X109210000Y-95802501D01*
G75*
G02*
X108960001Y-96052500I-249999J0D01*
G01*
G37*
G36*
G01*
X108960001Y-97877500D02*
X108059999Y-97877500D01*
G75*
G02*
X107810000Y-97627501I0J249999D01*
G01*
X107810000Y-97102499D01*
G75*
G02*
X108059999Y-96852500I249999J0D01*
G01*
X108960001Y-96852500D01*
G75*
G02*
X109210000Y-97102499I0J-249999D01*
G01*
X109210000Y-97627501D01*
G75*
G02*
X108960001Y-97877500I-249999J0D01*
G01*
G37*
%TD*%
%TO.C,R13*%
G36*
G01*
X96242500Y-73419201D02*
X96242500Y-72519199D01*
G75*
G02*
X96492499Y-72269200I249999J0D01*
G01*
X97017501Y-72269200D01*
G75*
G02*
X97267500Y-72519199I0J-249999D01*
G01*
X97267500Y-73419201D01*
G75*
G02*
X97017501Y-73669200I-249999J0D01*
G01*
X96492499Y-73669200D01*
G75*
G02*
X96242500Y-73419201I0J249999D01*
G01*
G37*
G36*
G01*
X94417500Y-73419201D02*
X94417500Y-72519199D01*
G75*
G02*
X94667499Y-72269200I249999J0D01*
G01*
X95192501Y-72269200D01*
G75*
G02*
X95442500Y-72519199I0J-249999D01*
G01*
X95442500Y-73419201D01*
G75*
G02*
X95192501Y-73669200I-249999J0D01*
G01*
X94667499Y-73669200D01*
G75*
G02*
X94417500Y-73419201I0J249999D01*
G01*
G37*
%TD*%
%TO.C,R12*%
G36*
G01*
X120972500Y-79839999D02*
X120972500Y-80740001D01*
G75*
G02*
X120722501Y-80990000I-249999J0D01*
G01*
X120197499Y-80990000D01*
G75*
G02*
X119947500Y-80740001I0J249999D01*
G01*
X119947500Y-79839999D01*
G75*
G02*
X120197499Y-79590000I249999J0D01*
G01*
X120722501Y-79590000D01*
G75*
G02*
X120972500Y-79839999I0J-249999D01*
G01*
G37*
G36*
G01*
X122797500Y-79839999D02*
X122797500Y-80740001D01*
G75*
G02*
X122547501Y-80990000I-249999J0D01*
G01*
X122022499Y-80990000D01*
G75*
G02*
X121772500Y-80740001I0J249999D01*
G01*
X121772500Y-79839999D01*
G75*
G02*
X122022499Y-79590000I249999J0D01*
G01*
X122547501Y-79590000D01*
G75*
G02*
X122797500Y-79839999I0J-249999D01*
G01*
G37*
%TD*%
%TO.C,R11*%
G36*
G01*
X120942500Y-92549999D02*
X120942500Y-93450001D01*
G75*
G02*
X120692501Y-93700000I-249999J0D01*
G01*
X120167499Y-93700000D01*
G75*
G02*
X119917500Y-93450001I0J249999D01*
G01*
X119917500Y-92549999D01*
G75*
G02*
X120167499Y-92300000I249999J0D01*
G01*
X120692501Y-92300000D01*
G75*
G02*
X120942500Y-92549999I0J-249999D01*
G01*
G37*
G36*
G01*
X122767500Y-92549999D02*
X122767500Y-93450001D01*
G75*
G02*
X122517501Y-93700000I-249999J0D01*
G01*
X121992499Y-93700000D01*
G75*
G02*
X121742500Y-93450001I0J249999D01*
G01*
X121742500Y-92549999D01*
G75*
G02*
X121992499Y-92300000I249999J0D01*
G01*
X122517501Y-92300000D01*
G75*
G02*
X122767500Y-92549999I0J-249999D01*
G01*
G37*
%TD*%
%TO.C,R10*%
G36*
G01*
X120930000Y-87469999D02*
X120930000Y-88370001D01*
G75*
G02*
X120680001Y-88620000I-249999J0D01*
G01*
X120154999Y-88620000D01*
G75*
G02*
X119905000Y-88370001I0J249999D01*
G01*
X119905000Y-87469999D01*
G75*
G02*
X120154999Y-87220000I249999J0D01*
G01*
X120680001Y-87220000D01*
G75*
G02*
X120930000Y-87469999I0J-249999D01*
G01*
G37*
G36*
G01*
X122755000Y-87469999D02*
X122755000Y-88370001D01*
G75*
G02*
X122505001Y-88620000I-249999J0D01*
G01*
X121979999Y-88620000D01*
G75*
G02*
X121730000Y-88370001I0J249999D01*
G01*
X121730000Y-87469999D01*
G75*
G02*
X121979999Y-87220000I249999J0D01*
G01*
X122505001Y-87220000D01*
G75*
G02*
X122755000Y-87469999I0J-249999D01*
G01*
G37*
%TD*%
%TO.C,R9*%
G36*
G01*
X120912500Y-84939999D02*
X120912500Y-85840001D01*
G75*
G02*
X120662501Y-86090000I-249999J0D01*
G01*
X120137499Y-86090000D01*
G75*
G02*
X119887500Y-85840001I0J249999D01*
G01*
X119887500Y-84939999D01*
G75*
G02*
X120137499Y-84690000I249999J0D01*
G01*
X120662501Y-84690000D01*
G75*
G02*
X120912500Y-84939999I0J-249999D01*
G01*
G37*
G36*
G01*
X122737500Y-84939999D02*
X122737500Y-85840001D01*
G75*
G02*
X122487501Y-86090000I-249999J0D01*
G01*
X121962499Y-86090000D01*
G75*
G02*
X121712500Y-85840001I0J249999D01*
G01*
X121712500Y-84939999D01*
G75*
G02*
X121962499Y-84690000I249999J0D01*
G01*
X122487501Y-84690000D01*
G75*
G02*
X122737500Y-84939999I0J-249999D01*
G01*
G37*
%TD*%
%TO.C,R8*%
G36*
G01*
X96499100Y-87738799D02*
X96499100Y-88638801D01*
G75*
G02*
X96249101Y-88888800I-249999J0D01*
G01*
X95724099Y-88888800D01*
G75*
G02*
X95474100Y-88638801I0J249999D01*
G01*
X95474100Y-87738799D01*
G75*
G02*
X95724099Y-87488800I249999J0D01*
G01*
X96249101Y-87488800D01*
G75*
G02*
X96499100Y-87738799I0J-249999D01*
G01*
G37*
G36*
G01*
X98324100Y-87738799D02*
X98324100Y-88638801D01*
G75*
G02*
X98074101Y-88888800I-249999J0D01*
G01*
X97549099Y-88888800D01*
G75*
G02*
X97299100Y-88638801I0J249999D01*
G01*
X97299100Y-87738799D01*
G75*
G02*
X97549099Y-87488800I249999J0D01*
G01*
X98074101Y-87488800D01*
G75*
G02*
X98324100Y-87738799I0J-249999D01*
G01*
G37*
%TD*%
%TO.C,R7*%
G36*
G01*
X91600000Y-84349999D02*
X91600000Y-85250001D01*
G75*
G02*
X91350001Y-85500000I-249999J0D01*
G01*
X90824999Y-85500000D01*
G75*
G02*
X90575000Y-85250001I0J249999D01*
G01*
X90575000Y-84349999D01*
G75*
G02*
X90824999Y-84100000I249999J0D01*
G01*
X91350001Y-84100000D01*
G75*
G02*
X91600000Y-84349999I0J-249999D01*
G01*
G37*
G36*
G01*
X93425000Y-84349999D02*
X93425000Y-85250001D01*
G75*
G02*
X93175001Y-85500000I-249999J0D01*
G01*
X92649999Y-85500000D01*
G75*
G02*
X92400000Y-85250001I0J249999D01*
G01*
X92400000Y-84349999D01*
G75*
G02*
X92649999Y-84100000I249999J0D01*
G01*
X93175001Y-84100000D01*
G75*
G02*
X93425000Y-84349999I0J-249999D01*
G01*
G37*
%TD*%
%TO.C,R6*%
G36*
G01*
X91570000Y-89489999D02*
X91570000Y-90390001D01*
G75*
G02*
X91320001Y-90640000I-249999J0D01*
G01*
X90794999Y-90640000D01*
G75*
G02*
X90545000Y-90390001I0J249999D01*
G01*
X90545000Y-89489999D01*
G75*
G02*
X90794999Y-89240000I249999J0D01*
G01*
X91320001Y-89240000D01*
G75*
G02*
X91570000Y-89489999I0J-249999D01*
G01*
G37*
G36*
G01*
X93395000Y-89489999D02*
X93395000Y-90390001D01*
G75*
G02*
X93145001Y-90640000I-249999J0D01*
G01*
X92619999Y-90640000D01*
G75*
G02*
X92370000Y-90390001I0J249999D01*
G01*
X92370000Y-89489999D01*
G75*
G02*
X92619999Y-89240000I249999J0D01*
G01*
X93145001Y-89240000D01*
G75*
G02*
X93395000Y-89489999I0J-249999D01*
G01*
G37*
%TD*%
%TO.C,R5*%
G36*
G01*
X96499100Y-85706799D02*
X96499100Y-86606801D01*
G75*
G02*
X96249101Y-86856800I-249999J0D01*
G01*
X95724099Y-86856800D01*
G75*
G02*
X95474100Y-86606801I0J249999D01*
G01*
X95474100Y-85706799D01*
G75*
G02*
X95724099Y-85456800I249999J0D01*
G01*
X96249101Y-85456800D01*
G75*
G02*
X96499100Y-85706799I0J-249999D01*
G01*
G37*
G36*
G01*
X98324100Y-85706799D02*
X98324100Y-86606801D01*
G75*
G02*
X98074101Y-86856800I-249999J0D01*
G01*
X97549099Y-86856800D01*
G75*
G02*
X97299100Y-86606801I0J249999D01*
G01*
X97299100Y-85706799D01*
G75*
G02*
X97549099Y-85456800I249999J0D01*
G01*
X98074101Y-85456800D01*
G75*
G02*
X98324100Y-85706799I0J-249999D01*
G01*
G37*
%TD*%
%TO.C,R4*%
G36*
G01*
X117087500Y-79859999D02*
X117087500Y-80760001D01*
G75*
G02*
X116837501Y-81010000I-249999J0D01*
G01*
X116312499Y-81010000D01*
G75*
G02*
X116062500Y-80760001I0J249999D01*
G01*
X116062500Y-79859999D01*
G75*
G02*
X116312499Y-79610000I249999J0D01*
G01*
X116837501Y-79610000D01*
G75*
G02*
X117087500Y-79859999I0J-249999D01*
G01*
G37*
G36*
G01*
X118912500Y-79859999D02*
X118912500Y-80760001D01*
G75*
G02*
X118662501Y-81010000I-249999J0D01*
G01*
X118137499Y-81010000D01*
G75*
G02*
X117887500Y-80760001I0J249999D01*
G01*
X117887500Y-79859999D01*
G75*
G02*
X118137499Y-79610000I249999J0D01*
G01*
X118662501Y-79610000D01*
G75*
G02*
X118912500Y-79859999I0J-249999D01*
G01*
G37*
%TD*%
%TO.C,R3*%
G36*
G01*
X116987500Y-92559999D02*
X116987500Y-93460001D01*
G75*
G02*
X116737501Y-93710000I-249999J0D01*
G01*
X116212499Y-93710000D01*
G75*
G02*
X115962500Y-93460001I0J249999D01*
G01*
X115962500Y-92559999D01*
G75*
G02*
X116212499Y-92310000I249999J0D01*
G01*
X116737501Y-92310000D01*
G75*
G02*
X116987500Y-92559999I0J-249999D01*
G01*
G37*
G36*
G01*
X118812500Y-92559999D02*
X118812500Y-93460001D01*
G75*
G02*
X118562501Y-93710000I-249999J0D01*
G01*
X118037499Y-93710000D01*
G75*
G02*
X117787500Y-93460001I0J249999D01*
G01*
X117787500Y-92559999D01*
G75*
G02*
X118037499Y-92310000I249999J0D01*
G01*
X118562501Y-92310000D01*
G75*
G02*
X118812500Y-92559999I0J-249999D01*
G01*
G37*
%TD*%
%TO.C,R2*%
G36*
G01*
X116997500Y-87469999D02*
X116997500Y-88370001D01*
G75*
G02*
X116747501Y-88620000I-249999J0D01*
G01*
X116222499Y-88620000D01*
G75*
G02*
X115972500Y-88370001I0J249999D01*
G01*
X115972500Y-87469999D01*
G75*
G02*
X116222499Y-87220000I249999J0D01*
G01*
X116747501Y-87220000D01*
G75*
G02*
X116997500Y-87469999I0J-249999D01*
G01*
G37*
G36*
G01*
X118822500Y-87469999D02*
X118822500Y-88370001D01*
G75*
G02*
X118572501Y-88620000I-249999J0D01*
G01*
X118047499Y-88620000D01*
G75*
G02*
X117797500Y-88370001I0J249999D01*
G01*
X117797500Y-87469999D01*
G75*
G02*
X118047499Y-87220000I249999J0D01*
G01*
X118572501Y-87220000D01*
G75*
G02*
X118822500Y-87469999I0J-249999D01*
G01*
G37*
%TD*%
%TO.C,R1*%
G36*
G01*
X116997500Y-84949999D02*
X116997500Y-85850001D01*
G75*
G02*
X116747501Y-86100000I-249999J0D01*
G01*
X116222499Y-86100000D01*
G75*
G02*
X115972500Y-85850001I0J249999D01*
G01*
X115972500Y-84949999D01*
G75*
G02*
X116222499Y-84700000I249999J0D01*
G01*
X116747501Y-84700000D01*
G75*
G02*
X116997500Y-84949999I0J-249999D01*
G01*
G37*
G36*
G01*
X118822500Y-84949999D02*
X118822500Y-85850001D01*
G75*
G02*
X118572501Y-86100000I-249999J0D01*
G01*
X118047499Y-86100000D01*
G75*
G02*
X117797500Y-85850001I0J249999D01*
G01*
X117797500Y-84949999D01*
G75*
G02*
X118047499Y-84700000I249999J0D01*
G01*
X118572501Y-84700000D01*
G75*
G02*
X118822500Y-84949999I0J-249999D01*
G01*
G37*
%TD*%
D11*
%TO.C,JP1*%
G36*
X122170000Y-74520602D02*
G01*
X122194534Y-74520602D01*
X122243365Y-74525412D01*
X122291490Y-74534984D01*
X122338445Y-74549228D01*
X122383778Y-74568005D01*
X122427051Y-74591136D01*
X122467850Y-74618396D01*
X122505779Y-74649524D01*
X122540476Y-74684221D01*
X122571604Y-74722150D01*
X122598864Y-74762949D01*
X122621995Y-74806222D01*
X122640772Y-74851555D01*
X122655016Y-74898510D01*
X122664588Y-74946635D01*
X122669398Y-74995466D01*
X122669398Y-75020000D01*
X122670000Y-75020000D01*
X122670000Y-75520000D01*
X122669398Y-75520000D01*
X122669398Y-75544534D01*
X122664588Y-75593365D01*
X122655016Y-75641490D01*
X122640772Y-75688445D01*
X122621995Y-75733778D01*
X122598864Y-75777051D01*
X122571604Y-75817850D01*
X122540476Y-75855779D01*
X122505779Y-75890476D01*
X122467850Y-75921604D01*
X122427051Y-75948864D01*
X122383778Y-75971995D01*
X122338445Y-75990772D01*
X122291490Y-76005016D01*
X122243365Y-76014588D01*
X122194534Y-76019398D01*
X122170000Y-76019398D01*
X122170000Y-76020000D01*
X121670000Y-76020000D01*
X121670000Y-74520000D01*
X122170000Y-74520000D01*
X122170000Y-74520602D01*
G37*
G36*
X121370000Y-76020000D02*
G01*
X120870000Y-76020000D01*
X120870000Y-76019398D01*
X120845466Y-76019398D01*
X120796635Y-76014588D01*
X120748510Y-76005016D01*
X120701555Y-75990772D01*
X120656222Y-75971995D01*
X120612949Y-75948864D01*
X120572150Y-75921604D01*
X120534221Y-75890476D01*
X120499524Y-75855779D01*
X120468396Y-75817850D01*
X120441136Y-75777051D01*
X120418005Y-75733778D01*
X120399228Y-75688445D01*
X120384984Y-75641490D01*
X120375412Y-75593365D01*
X120370602Y-75544534D01*
X120370602Y-75520000D01*
X120370000Y-75520000D01*
X120370000Y-75020000D01*
X120370602Y-75020000D01*
X120370602Y-74995466D01*
X120375412Y-74946635D01*
X120384984Y-74898510D01*
X120399228Y-74851555D01*
X120418005Y-74806222D01*
X120441136Y-74762949D01*
X120468396Y-74722150D01*
X120499524Y-74684221D01*
X120534221Y-74649524D01*
X120572150Y-74618396D01*
X120612949Y-74591136D01*
X120656222Y-74568005D01*
X120701555Y-74549228D01*
X120748510Y-74534984D01*
X120796635Y-74525412D01*
X120845466Y-74520602D01*
X120870000Y-74520602D01*
X120870000Y-74520000D01*
X121370000Y-74520000D01*
X121370000Y-76020000D01*
G37*
%TD*%
D12*
%TO.C,J2*%
X87814200Y-90143400D03*
X87814200Y-89343400D03*
X87814200Y-84443400D03*
X87814200Y-83643400D03*
X87814200Y-83643400D03*
X87814200Y-84443400D03*
X87814200Y-89343400D03*
X87814200Y-90143400D03*
D13*
X87814200Y-85143400D03*
X87814200Y-85643400D03*
X87814200Y-86143400D03*
X87814200Y-87143400D03*
X87814200Y-87643400D03*
X87814200Y-88143400D03*
X87814200Y-88643400D03*
X87814200Y-86643400D03*
D14*
X86899200Y-91213400D03*
X86899200Y-82573400D03*
D15*
X86369200Y-84003400D03*
D16*
X82719200Y-82573400D03*
D15*
X86369200Y-89783400D03*
D16*
X82719200Y-91213400D03*
%TD*%
D17*
%TO.C,J1*%
X125148800Y-98093000D03*
X125148800Y-95553000D03*
X125148800Y-93013000D03*
X125148800Y-90473000D03*
X125148800Y-87933000D03*
X125148800Y-85393000D03*
X125148800Y-82853000D03*
X125148800Y-80313000D03*
X125148800Y-77773000D03*
X125148800Y-75233000D03*
D18*
X125148800Y-72693000D03*
%TD*%
D19*
%TO.C,H2*%
X85000000Y-70000000D03*
%TD*%
%TO.C,H1*%
X85000000Y-101000000D03*
%TD*%
%TO.C,FB1*%
G36*
G01*
X86989800Y-75026350D02*
X86989800Y-75788850D01*
G75*
G02*
X86771050Y-76007600I-218750J0D01*
G01*
X86333550Y-76007600D01*
G75*
G02*
X86114800Y-75788850I0J218750D01*
G01*
X86114800Y-75026350D01*
G75*
G02*
X86333550Y-74807600I218750J0D01*
G01*
X86771050Y-74807600D01*
G75*
G02*
X86989800Y-75026350I0J-218750D01*
G01*
G37*
G36*
G01*
X89114800Y-75026350D02*
X89114800Y-75788850D01*
G75*
G02*
X88896050Y-76007600I-218750J0D01*
G01*
X88458550Y-76007600D01*
G75*
G02*
X88239800Y-75788850I0J218750D01*
G01*
X88239800Y-75026350D01*
G75*
G02*
X88458550Y-74807600I218750J0D01*
G01*
X88896050Y-74807600D01*
G75*
G02*
X89114800Y-75026350I0J-218750D01*
G01*
G37*
%TD*%
%TO.C,F1*%
G36*
G01*
X90383600Y-79981801D02*
X90383600Y-77081799D01*
G75*
G02*
X90633599Y-76831800I249999J0D01*
G01*
X91258601Y-76831800D01*
G75*
G02*
X91508600Y-77081799I0J-249999D01*
G01*
X91508600Y-79981801D01*
G75*
G02*
X91258601Y-80231800I-249999J0D01*
G01*
X90633599Y-80231800D01*
G75*
G02*
X90383600Y-79981801I0J249999D01*
G01*
G37*
G36*
G01*
X86108600Y-79981801D02*
X86108600Y-77081799D01*
G75*
G02*
X86358599Y-76831800I249999J0D01*
G01*
X86983601Y-76831800D01*
G75*
G02*
X87233600Y-77081799I0J-249999D01*
G01*
X87233600Y-79981801D01*
G75*
G02*
X86983601Y-80231800I-249999J0D01*
G01*
X86358599Y-80231800D01*
G75*
G02*
X86108600Y-79981801I0J249999D01*
G01*
G37*
%TD*%
%TO.C,D3*%
G36*
G01*
X105963750Y-100467500D02*
X106876250Y-100467500D01*
G75*
G02*
X107120000Y-100711250I0J-243750D01*
G01*
X107120000Y-101198750D01*
G75*
G02*
X106876250Y-101442500I-243750J0D01*
G01*
X105963750Y-101442500D01*
G75*
G02*
X105720000Y-101198750I0J243750D01*
G01*
X105720000Y-100711250D01*
G75*
G02*
X105963750Y-100467500I243750J0D01*
G01*
G37*
G36*
G01*
X105963750Y-98592500D02*
X106876250Y-98592500D01*
G75*
G02*
X107120000Y-98836250I0J-243750D01*
G01*
X107120000Y-99323750D01*
G75*
G02*
X106876250Y-99567500I-243750J0D01*
G01*
X105963750Y-99567500D01*
G75*
G02*
X105720000Y-99323750I0J243750D01*
G01*
X105720000Y-98836250D01*
G75*
G02*
X105963750Y-98592500I243750J0D01*
G01*
G37*
%TD*%
%TO.C,D2*%
G36*
G01*
X108093750Y-100470000D02*
X109006250Y-100470000D01*
G75*
G02*
X109250000Y-100713750I0J-243750D01*
G01*
X109250000Y-101201250D01*
G75*
G02*
X109006250Y-101445000I-243750J0D01*
G01*
X108093750Y-101445000D01*
G75*
G02*
X107850000Y-101201250I0J243750D01*
G01*
X107850000Y-100713750D01*
G75*
G02*
X108093750Y-100470000I243750J0D01*
G01*
G37*
G36*
G01*
X108093750Y-98595000D02*
X109006250Y-98595000D01*
G75*
G02*
X109250000Y-98838750I0J-243750D01*
G01*
X109250000Y-99326250D01*
G75*
G02*
X109006250Y-99570000I-243750J0D01*
G01*
X108093750Y-99570000D01*
G75*
G02*
X107850000Y-99326250I0J243750D01*
G01*
X107850000Y-98838750D01*
G75*
G02*
X108093750Y-98595000I243750J0D01*
G01*
G37*
%TD*%
%TO.C,D1*%
G36*
G01*
X91785300Y-72563750D02*
X91785300Y-73476250D01*
G75*
G02*
X91541550Y-73720000I-243750J0D01*
G01*
X91054050Y-73720000D01*
G75*
G02*
X90810300Y-73476250I0J243750D01*
G01*
X90810300Y-72563750D01*
G75*
G02*
X91054050Y-72320000I243750J0D01*
G01*
X91541550Y-72320000D01*
G75*
G02*
X91785300Y-72563750I0J-243750D01*
G01*
G37*
G36*
G01*
X93660300Y-72563750D02*
X93660300Y-73476250D01*
G75*
G02*
X93416550Y-73720000I-243750J0D01*
G01*
X92929050Y-73720000D01*
G75*
G02*
X92685300Y-73476250I0J243750D01*
G01*
X92685300Y-72563750D01*
G75*
G02*
X92929050Y-72320000I243750J0D01*
G01*
X93416550Y-72320000D01*
G75*
G02*
X93660300Y-72563750I0J-243750D01*
G01*
G37*
%TD*%
%TO.C,C4*%
G36*
G01*
X101785000Y-93400000D02*
X102735000Y-93400000D01*
G75*
G02*
X102985000Y-93650000I0J-250000D01*
G01*
X102985000Y-94150000D01*
G75*
G02*
X102735000Y-94400000I-250000J0D01*
G01*
X101785000Y-94400000D01*
G75*
G02*
X101535000Y-94150000I0J250000D01*
G01*
X101535000Y-93650000D01*
G75*
G02*
X101785000Y-93400000I250000J0D01*
G01*
G37*
G36*
G01*
X101785000Y-91500000D02*
X102735000Y-91500000D01*
G75*
G02*
X102985000Y-91750000I0J-250000D01*
G01*
X102985000Y-92250000D01*
G75*
G02*
X102735000Y-92500000I-250000J0D01*
G01*
X101785000Y-92500000D01*
G75*
G02*
X101535000Y-92250000I0J250000D01*
G01*
X101535000Y-91750000D01*
G75*
G02*
X101785000Y-91500000I250000J0D01*
G01*
G37*
%TD*%
%TO.C,C3*%
G36*
G01*
X95242400Y-76822800D02*
X96192400Y-76822800D01*
G75*
G02*
X96442400Y-77072800I0J-250000D01*
G01*
X96442400Y-77572800D01*
G75*
G02*
X96192400Y-77822800I-250000J0D01*
G01*
X95242400Y-77822800D01*
G75*
G02*
X94992400Y-77572800I0J250000D01*
G01*
X94992400Y-77072800D01*
G75*
G02*
X95242400Y-76822800I250000J0D01*
G01*
G37*
G36*
G01*
X95242400Y-74922800D02*
X96192400Y-74922800D01*
G75*
G02*
X96442400Y-75172800I0J-250000D01*
G01*
X96442400Y-75672800D01*
G75*
G02*
X96192400Y-75922800I-250000J0D01*
G01*
X95242400Y-75922800D01*
G75*
G02*
X94992400Y-75672800I0J250000D01*
G01*
X94992400Y-75172800D01*
G75*
G02*
X95242400Y-74922800I250000J0D01*
G01*
G37*
%TD*%
%TO.C,C2*%
G36*
G01*
X97401400Y-76848200D02*
X98351400Y-76848200D01*
G75*
G02*
X98601400Y-77098200I0J-250000D01*
G01*
X98601400Y-77598200D01*
G75*
G02*
X98351400Y-77848200I-250000J0D01*
G01*
X97401400Y-77848200D01*
G75*
G02*
X97151400Y-77598200I0J250000D01*
G01*
X97151400Y-77098200D01*
G75*
G02*
X97401400Y-76848200I250000J0D01*
G01*
G37*
G36*
G01*
X97401400Y-74948200D02*
X98351400Y-74948200D01*
G75*
G02*
X98601400Y-75198200I0J-250000D01*
G01*
X98601400Y-75698200D01*
G75*
G02*
X98351400Y-75948200I-250000J0D01*
G01*
X97401400Y-75948200D01*
G75*
G02*
X97151400Y-75698200I0J250000D01*
G01*
X97151400Y-75198200D01*
G75*
G02*
X97401400Y-74948200I250000J0D01*
G01*
G37*
%TD*%
%TO.C,C1*%
G36*
G01*
X92931000Y-76787200D02*
X93881000Y-76787200D01*
G75*
G02*
X94131000Y-77037200I0J-250000D01*
G01*
X94131000Y-77537200D01*
G75*
G02*
X93881000Y-77787200I-250000J0D01*
G01*
X92931000Y-77787200D01*
G75*
G02*
X92681000Y-77537200I0J250000D01*
G01*
X92681000Y-77037200D01*
G75*
G02*
X92931000Y-76787200I250000J0D01*
G01*
G37*
G36*
G01*
X92931000Y-74887200D02*
X93881000Y-74887200D01*
G75*
G02*
X94131000Y-75137200I0J-250000D01*
G01*
X94131000Y-75637200D01*
G75*
G02*
X93881000Y-75887200I-250000J0D01*
G01*
X92931000Y-75887200D01*
G75*
G02*
X92681000Y-75637200I0J250000D01*
G01*
X92681000Y-75137200D01*
G75*
G02*
X92931000Y-74887200I250000J0D01*
G01*
G37*
%TD*%
M02*
