%TF.GenerationSoftware,KiCad,Pcbnew,(5.1.10)-1*%
%TF.CreationDate,2021-09-17T22:01:12+03:00*%
%TF.ProjectId,G800Interface,47383030-496e-4746-9572-666163652e6b,rev?*%
%TF.SameCoordinates,Original*%
%TF.FileFunction,Legend,Top*%
%TF.FilePolarity,Positive*%
%FSLAX46Y46*%
G04 Gerber Fmt 4.6, Leading zero omitted, Abs format (unit mm)*
G04 Created by KiCad (PCBNEW (5.1.10)-1) date 2021-09-17 22:01:12*
%MOMM*%
%LPD*%
G01*
G04 APERTURE LIST*
%ADD10C,0.150000*%
%ADD11C,0.500000*%
%ADD12C,0.300000*%
%ADD13C,0.120000*%
G04 APERTURE END LIST*
D10*
X113558690Y-72652380D02*
X113892023Y-73652380D01*
X114225357Y-72652380D01*
X115130119Y-73557142D02*
X115082499Y-73604761D01*
X114939642Y-73652380D01*
X114844404Y-73652380D01*
X114701547Y-73604761D01*
X114606309Y-73509523D01*
X114558690Y-73414285D01*
X114511071Y-73223809D01*
X114511071Y-73080952D01*
X114558690Y-72890476D01*
X114606309Y-72795238D01*
X114701547Y-72700000D01*
X114844404Y-72652380D01*
X114939642Y-72652380D01*
X115082499Y-72700000D01*
X115130119Y-72747619D01*
X116130119Y-73557142D02*
X116082499Y-73604761D01*
X115939642Y-73652380D01*
X115844404Y-73652380D01*
X115701547Y-73604761D01*
X115606309Y-73509523D01*
X115558690Y-73414285D01*
X115511071Y-73223809D01*
X115511071Y-73080952D01*
X115558690Y-72890476D01*
X115606309Y-72795238D01*
X115701547Y-72700000D01*
X115844404Y-72652380D01*
X115939642Y-72652380D01*
X116082499Y-72700000D01*
X116130119Y-72747619D01*
X117892023Y-73557142D02*
X117844404Y-73604761D01*
X117701547Y-73652380D01*
X117606309Y-73652380D01*
X117463452Y-73604761D01*
X117368214Y-73509523D01*
X117320595Y-73414285D01*
X117272976Y-73223809D01*
X117272976Y-73080952D01*
X117320595Y-72890476D01*
X117368214Y-72795238D01*
X117463452Y-72700000D01*
X117606309Y-72652380D01*
X117701547Y-72652380D01*
X117844404Y-72700000D01*
X117892023Y-72747619D01*
X118463452Y-73652380D02*
X118368214Y-73604761D01*
X118320595Y-73557142D01*
X118272976Y-73461904D01*
X118272976Y-73176190D01*
X118320595Y-73080952D01*
X118368214Y-73033333D01*
X118463452Y-72985714D01*
X118606309Y-72985714D01*
X118701547Y-73033333D01*
X118749166Y-73080952D01*
X118796785Y-73176190D01*
X118796785Y-73461904D01*
X118749166Y-73557142D01*
X118701547Y-73604761D01*
X118606309Y-73652380D01*
X118463452Y-73652380D01*
X119225357Y-72985714D02*
X119225357Y-73652380D01*
X119225357Y-73080952D02*
X119272976Y-73033333D01*
X119368214Y-72985714D01*
X119511071Y-72985714D01*
X119606309Y-73033333D01*
X119653928Y-73128571D01*
X119653928Y-73652380D01*
X120130119Y-72985714D02*
X120130119Y-73652380D01*
X120130119Y-73080952D02*
X120177738Y-73033333D01*
X120272976Y-72985714D01*
X120415833Y-72985714D01*
X120511071Y-73033333D01*
X120558690Y-73128571D01*
X120558690Y-73652380D01*
X121415833Y-73604761D02*
X121320595Y-73652380D01*
X121130119Y-73652380D01*
X121034880Y-73604761D01*
X120987261Y-73509523D01*
X120987261Y-73128571D01*
X121034880Y-73033333D01*
X121130119Y-72985714D01*
X121320595Y-72985714D01*
X121415833Y-73033333D01*
X121463452Y-73128571D01*
X121463452Y-73223809D01*
X120987261Y-73319047D01*
X122320595Y-73604761D02*
X122225357Y-73652380D01*
X122034880Y-73652380D01*
X121939642Y-73604761D01*
X121892023Y-73557142D01*
X121844404Y-73461904D01*
X121844404Y-73176190D01*
X121892023Y-73080952D01*
X121939642Y-73033333D01*
X122034880Y-72985714D01*
X122225357Y-72985714D01*
X122320595Y-73033333D01*
X122606309Y-72985714D02*
X122987261Y-72985714D01*
X122749166Y-72652380D02*
X122749166Y-73509523D01*
X122796785Y-73604761D01*
X122892023Y-73652380D01*
X122987261Y-73652380D01*
D11*
X112767142Y-101634761D02*
X112767142Y-103634761D01*
X114481428Y-101634761D01*
X114481428Y-103634761D01*
X115767142Y-101634761D02*
X116767142Y-102968095D01*
X117767142Y-101634761D02*
X116481428Y-103349047D01*
X116195714Y-103539523D01*
X115910000Y-103634761D01*
X115767142Y-103634761D01*
X120338571Y-103634761D02*
X118624285Y-103634761D01*
X119481428Y-103634761D02*
X119481428Y-101634761D01*
X119195714Y-101920476D01*
X118910000Y-102110952D01*
X118624285Y-102206190D01*
X122195714Y-101634761D02*
X122481428Y-101634761D01*
X122767142Y-101730000D01*
X122910000Y-101825238D01*
X123052857Y-102015714D01*
X123195714Y-102396666D01*
X123195714Y-102872857D01*
X123052857Y-103253809D01*
X122910000Y-103444285D01*
X122767142Y-103539523D01*
X122481428Y-103634761D01*
X122195714Y-103634761D01*
X121910000Y-103539523D01*
X121767142Y-103444285D01*
X121624285Y-103253809D01*
X121481428Y-102872857D01*
X121481428Y-102396666D01*
X121624285Y-102015714D01*
X121767142Y-101825238D01*
X121910000Y-101730000D01*
X122195714Y-101634761D01*
D12*
X88688095Y-67184761D02*
X88688095Y-68803809D01*
X88783333Y-68994285D01*
X88878571Y-69089523D01*
X89069047Y-69184761D01*
X89450000Y-69184761D01*
X89640476Y-69089523D01*
X89735714Y-68994285D01*
X89830952Y-68803809D01*
X89830952Y-67184761D01*
X90688095Y-69089523D02*
X90973809Y-69184761D01*
X91450000Y-69184761D01*
X91640476Y-69089523D01*
X91735714Y-68994285D01*
X91830952Y-68803809D01*
X91830952Y-68613333D01*
X91735714Y-68422857D01*
X91640476Y-68327619D01*
X91450000Y-68232380D01*
X91069047Y-68137142D01*
X90878571Y-68041904D01*
X90783333Y-67946666D01*
X90688095Y-67756190D01*
X90688095Y-67565714D01*
X90783333Y-67375238D01*
X90878571Y-67280000D01*
X91069047Y-67184761D01*
X91545238Y-67184761D01*
X91830952Y-67280000D01*
X93354761Y-68137142D02*
X93640476Y-68232380D01*
X93735714Y-68327619D01*
X93830952Y-68518095D01*
X93830952Y-68803809D01*
X93735714Y-68994285D01*
X93640476Y-69089523D01*
X93450000Y-69184761D01*
X92688095Y-69184761D01*
X92688095Y-67184761D01*
X93354761Y-67184761D01*
X93545238Y-67280000D01*
X93640476Y-67375238D01*
X93735714Y-67565714D01*
X93735714Y-67756190D01*
X93640476Y-67946666D01*
X93545238Y-68041904D01*
X93354761Y-68137142D01*
X92688095Y-68137142D01*
X95830952Y-68994285D02*
X95735714Y-69089523D01*
X95450000Y-69184761D01*
X95259523Y-69184761D01*
X94973809Y-69089523D01*
X94783333Y-68899047D01*
X94688095Y-68708571D01*
X94592857Y-68327619D01*
X94592857Y-68041904D01*
X94688095Y-67660952D01*
X94783333Y-67470476D01*
X94973809Y-67280000D01*
X95259523Y-67184761D01*
X95450000Y-67184761D01*
X95735714Y-67280000D01*
X95830952Y-67375238D01*
X97926190Y-67851428D02*
X98688095Y-67851428D01*
X98211904Y-67184761D02*
X98211904Y-68899047D01*
X98307142Y-69089523D01*
X98497619Y-69184761D01*
X98688095Y-69184761D01*
X99640476Y-69184761D02*
X99450000Y-69089523D01*
X99354761Y-68994285D01*
X99259523Y-68803809D01*
X99259523Y-68232380D01*
X99354761Y-68041904D01*
X99450000Y-67946666D01*
X99640476Y-67851428D01*
X99926190Y-67851428D01*
X100116666Y-67946666D01*
X100211904Y-68041904D01*
X100307142Y-68232380D01*
X100307142Y-68803809D01*
X100211904Y-68994285D01*
X100116666Y-69089523D01*
X99926190Y-69184761D01*
X99640476Y-69184761D01*
X103735714Y-67280000D02*
X103545238Y-67184761D01*
X103259523Y-67184761D01*
X102973809Y-67280000D01*
X102783333Y-67470476D01*
X102688095Y-67660952D01*
X102592857Y-68041904D01*
X102592857Y-68327619D01*
X102688095Y-68708571D01*
X102783333Y-68899047D01*
X102973809Y-69089523D01*
X103259523Y-69184761D01*
X103450000Y-69184761D01*
X103735714Y-69089523D01*
X103830952Y-68994285D01*
X103830952Y-68327619D01*
X103450000Y-68327619D01*
X104973809Y-68041904D02*
X104783333Y-67946666D01*
X104688095Y-67851428D01*
X104592857Y-67660952D01*
X104592857Y-67565714D01*
X104688095Y-67375238D01*
X104783333Y-67280000D01*
X104973809Y-67184761D01*
X105354761Y-67184761D01*
X105545238Y-67280000D01*
X105640476Y-67375238D01*
X105735714Y-67565714D01*
X105735714Y-67660952D01*
X105640476Y-67851428D01*
X105545238Y-67946666D01*
X105354761Y-68041904D01*
X104973809Y-68041904D01*
X104783333Y-68137142D01*
X104688095Y-68232380D01*
X104592857Y-68422857D01*
X104592857Y-68803809D01*
X104688095Y-68994285D01*
X104783333Y-69089523D01*
X104973809Y-69184761D01*
X105354761Y-69184761D01*
X105545238Y-69089523D01*
X105640476Y-68994285D01*
X105735714Y-68803809D01*
X105735714Y-68422857D01*
X105640476Y-68232380D01*
X105545238Y-68137142D01*
X105354761Y-68041904D01*
X106973809Y-67184761D02*
X107164285Y-67184761D01*
X107354761Y-67280000D01*
X107450000Y-67375238D01*
X107545238Y-67565714D01*
X107640476Y-67946666D01*
X107640476Y-68422857D01*
X107545238Y-68803809D01*
X107450000Y-68994285D01*
X107354761Y-69089523D01*
X107164285Y-69184761D01*
X106973809Y-69184761D01*
X106783333Y-69089523D01*
X106688095Y-68994285D01*
X106592857Y-68803809D01*
X106497619Y-68422857D01*
X106497619Y-67946666D01*
X106592857Y-67565714D01*
X106688095Y-67375238D01*
X106783333Y-67280000D01*
X106973809Y-67184761D01*
X108878571Y-67184761D02*
X109069047Y-67184761D01*
X109259523Y-67280000D01*
X109354761Y-67375238D01*
X109450000Y-67565714D01*
X109545238Y-67946666D01*
X109545238Y-68422857D01*
X109450000Y-68803809D01*
X109354761Y-68994285D01*
X109259523Y-69089523D01*
X109069047Y-69184761D01*
X108878571Y-69184761D01*
X108688095Y-69089523D01*
X108592857Y-68994285D01*
X108497619Y-68803809D01*
X108402380Y-68422857D01*
X108402380Y-67946666D01*
X108497619Y-67565714D01*
X108592857Y-67375238D01*
X108688095Y-67280000D01*
X108878571Y-67184761D01*
X111926190Y-69184761D02*
X111926190Y-67184761D01*
X112878571Y-67851428D02*
X112878571Y-69184761D01*
X112878571Y-68041904D02*
X112973809Y-67946666D01*
X113164285Y-67851428D01*
X113450000Y-67851428D01*
X113640476Y-67946666D01*
X113735714Y-68137142D01*
X113735714Y-69184761D01*
X114402380Y-67851428D02*
X115164285Y-67851428D01*
X114688095Y-67184761D02*
X114688095Y-68899047D01*
X114783333Y-69089523D01*
X114973809Y-69184761D01*
X115164285Y-69184761D01*
X116592857Y-69089523D02*
X116402380Y-69184761D01*
X116021428Y-69184761D01*
X115830952Y-69089523D01*
X115735714Y-68899047D01*
X115735714Y-68137142D01*
X115830952Y-67946666D01*
X116021428Y-67851428D01*
X116402380Y-67851428D01*
X116592857Y-67946666D01*
X116688095Y-68137142D01*
X116688095Y-68327619D01*
X115735714Y-68518095D01*
X117545238Y-69184761D02*
X117545238Y-67851428D01*
X117545238Y-68232380D02*
X117640476Y-68041904D01*
X117735714Y-67946666D01*
X117926190Y-67851428D01*
X118116666Y-67851428D01*
X118497619Y-67851428D02*
X119259523Y-67851428D01*
X118783333Y-69184761D02*
X118783333Y-67470476D01*
X118878571Y-67280000D01*
X119069047Y-67184761D01*
X119259523Y-67184761D01*
X120783333Y-69184761D02*
X120783333Y-68137142D01*
X120688095Y-67946666D01*
X120497619Y-67851428D01*
X120116666Y-67851428D01*
X119926190Y-67946666D01*
X120783333Y-69089523D02*
X120592857Y-69184761D01*
X120116666Y-69184761D01*
X119926190Y-69089523D01*
X119830952Y-68899047D01*
X119830952Y-68708571D01*
X119926190Y-68518095D01*
X120116666Y-68422857D01*
X120592857Y-68422857D01*
X120783333Y-68327619D01*
X122592857Y-69089523D02*
X122402380Y-69184761D01*
X122021428Y-69184761D01*
X121830952Y-69089523D01*
X121735714Y-68994285D01*
X121640476Y-68803809D01*
X121640476Y-68232380D01*
X121735714Y-68041904D01*
X121830952Y-67946666D01*
X122021428Y-67851428D01*
X122402380Y-67851428D01*
X122592857Y-67946666D01*
X124211904Y-69089523D02*
X124021428Y-69184761D01*
X123640476Y-69184761D01*
X123450000Y-69089523D01*
X123354761Y-68899047D01*
X123354761Y-68137142D01*
X123450000Y-67946666D01*
X123640476Y-67851428D01*
X124021428Y-67851428D01*
X124211904Y-67946666D01*
X124307142Y-68137142D01*
X124307142Y-68327619D01*
X123354761Y-68518095D01*
D13*
%TO.C,C5*%
X105341252Y-91485000D02*
X104818748Y-91485000D01*
X105341252Y-92955000D02*
X104818748Y-92955000D01*
D10*
%TO.C,U1*%
X112050600Y-83379200D02*
X111475600Y-83379200D01*
X112050600Y-89129200D02*
X111400600Y-89129200D01*
X101400600Y-89129200D02*
X102050600Y-89129200D01*
X101400600Y-83379200D02*
X102050600Y-83379200D01*
X112050600Y-83379200D02*
X112050600Y-89129200D01*
X101400600Y-83379200D02*
X101400600Y-89129200D01*
X111475600Y-83379200D02*
X111475600Y-81779200D01*
D13*
%TO.C,R15*%
X105665000Y-96689564D02*
X105665000Y-96235436D01*
X107135000Y-96689564D02*
X107135000Y-96235436D01*
%TO.C,R14*%
X107775000Y-96679564D02*
X107775000Y-96225436D01*
X109245000Y-96679564D02*
X109245000Y-96225436D01*
%TO.C,R13*%
X95615436Y-72234200D02*
X96069564Y-72234200D01*
X95615436Y-73704200D02*
X96069564Y-73704200D01*
%TO.C,R12*%
X121599564Y-81025000D02*
X121145436Y-81025000D01*
X121599564Y-79555000D02*
X121145436Y-79555000D01*
%TO.C,R11*%
X121569564Y-93735000D02*
X121115436Y-93735000D01*
X121569564Y-92265000D02*
X121115436Y-92265000D01*
%TO.C,R10*%
X121557064Y-88655000D02*
X121102936Y-88655000D01*
X121557064Y-87185000D02*
X121102936Y-87185000D01*
%TO.C,R9*%
X121539564Y-86125000D02*
X121085436Y-86125000D01*
X121539564Y-84655000D02*
X121085436Y-84655000D01*
%TO.C,R8*%
X97126164Y-88923800D02*
X96672036Y-88923800D01*
X97126164Y-87453800D02*
X96672036Y-87453800D01*
%TO.C,R7*%
X92227064Y-85535000D02*
X91772936Y-85535000D01*
X92227064Y-84065000D02*
X91772936Y-84065000D01*
%TO.C,R6*%
X92197064Y-90675000D02*
X91742936Y-90675000D01*
X92197064Y-89205000D02*
X91742936Y-89205000D01*
%TO.C,R5*%
X97126164Y-86891800D02*
X96672036Y-86891800D01*
X97126164Y-85421800D02*
X96672036Y-85421800D01*
%TO.C,R4*%
X117714564Y-81045000D02*
X117260436Y-81045000D01*
X117714564Y-79575000D02*
X117260436Y-79575000D01*
%TO.C,R3*%
X117614564Y-93745000D02*
X117160436Y-93745000D01*
X117614564Y-92275000D02*
X117160436Y-92275000D01*
%TO.C,R2*%
X117624564Y-88655000D02*
X117170436Y-88655000D01*
X117624564Y-87185000D02*
X117170436Y-87185000D01*
%TO.C,R1*%
X117624564Y-86135000D02*
X117170436Y-86135000D01*
X117624564Y-84665000D02*
X117170436Y-84665000D01*
%TO.C,JP1*%
X120120000Y-75570000D02*
X120120000Y-74970000D01*
X122220000Y-76270000D02*
X120820000Y-76270000D01*
X122920000Y-74970000D02*
X122920000Y-75570000D01*
X120820000Y-74270000D02*
X122220000Y-74270000D01*
X120120000Y-74970000D02*
G75*
G02*
X120820000Y-74270000I700000J0D01*
G01*
X120820000Y-76270000D02*
G75*
G02*
X120120000Y-75570000I0J700000D01*
G01*
X122920000Y-75570000D02*
G75*
G02*
X122220000Y-76270000I-700000J0D01*
G01*
X122220000Y-74270000D02*
G75*
G02*
X122920000Y-74970000I0J-700000D01*
G01*
%TO.C,J2*%
X81769200Y-82193400D02*
X79869200Y-82193400D01*
X85669200Y-82193400D02*
X83669200Y-82193400D01*
X81769200Y-91593400D02*
X79869200Y-91593400D01*
X85669200Y-91593400D02*
X83669200Y-91593400D01*
X79869200Y-82193400D02*
X79869200Y-91593400D01*
%TO.C,J1*%
X126588800Y-71363000D02*
X126588800Y-99423000D01*
X126588800Y-99423000D02*
X129248800Y-99423000D01*
X129248800Y-99423000D02*
X129248800Y-71363000D01*
X129248800Y-71363000D02*
X126588800Y-71363000D01*
X129248800Y-72313000D02*
X135248800Y-72313000D01*
X135248800Y-72313000D02*
X135248800Y-73073000D01*
X135248800Y-73073000D02*
X129248800Y-73073000D01*
X129248800Y-72373000D02*
X135248800Y-72373000D01*
X129248800Y-72493000D02*
X135248800Y-72493000D01*
X129248800Y-72613000D02*
X135248800Y-72613000D01*
X129248800Y-72733000D02*
X135248800Y-72733000D01*
X129248800Y-72853000D02*
X135248800Y-72853000D01*
X129248800Y-72973000D02*
X135248800Y-72973000D01*
X126258800Y-72313000D02*
X126588800Y-72313000D01*
X126258800Y-73073000D02*
X126588800Y-73073000D01*
X126588800Y-73963000D02*
X129248800Y-73963000D01*
X129248800Y-74853000D02*
X135248800Y-74853000D01*
X135248800Y-74853000D02*
X135248800Y-75613000D01*
X135248800Y-75613000D02*
X129248800Y-75613000D01*
X126191729Y-74853000D02*
X126588800Y-74853000D01*
X126191729Y-75613000D02*
X126588800Y-75613000D01*
X126588800Y-76503000D02*
X129248800Y-76503000D01*
X129248800Y-77393000D02*
X135248800Y-77393000D01*
X135248800Y-77393000D02*
X135248800Y-78153000D01*
X135248800Y-78153000D02*
X129248800Y-78153000D01*
X126191729Y-77393000D02*
X126588800Y-77393000D01*
X126191729Y-78153000D02*
X126588800Y-78153000D01*
X126588800Y-79043000D02*
X129248800Y-79043000D01*
X129248800Y-79933000D02*
X135248800Y-79933000D01*
X135248800Y-79933000D02*
X135248800Y-80693000D01*
X135248800Y-80693000D02*
X129248800Y-80693000D01*
X126191729Y-79933000D02*
X126588800Y-79933000D01*
X126191729Y-80693000D02*
X126588800Y-80693000D01*
X126588800Y-81583000D02*
X129248800Y-81583000D01*
X129248800Y-82473000D02*
X135248800Y-82473000D01*
X135248800Y-82473000D02*
X135248800Y-83233000D01*
X135248800Y-83233000D02*
X129248800Y-83233000D01*
X126191729Y-82473000D02*
X126588800Y-82473000D01*
X126191729Y-83233000D02*
X126588800Y-83233000D01*
X126588800Y-84123000D02*
X129248800Y-84123000D01*
X129248800Y-85013000D02*
X135248800Y-85013000D01*
X135248800Y-85013000D02*
X135248800Y-85773000D01*
X135248800Y-85773000D02*
X129248800Y-85773000D01*
X126191729Y-85013000D02*
X126588800Y-85013000D01*
X126191729Y-85773000D02*
X126588800Y-85773000D01*
X126588800Y-86663000D02*
X129248800Y-86663000D01*
X129248800Y-87553000D02*
X135248800Y-87553000D01*
X135248800Y-87553000D02*
X135248800Y-88313000D01*
X135248800Y-88313000D02*
X129248800Y-88313000D01*
X126191729Y-87553000D02*
X126588800Y-87553000D01*
X126191729Y-88313000D02*
X126588800Y-88313000D01*
X126588800Y-89203000D02*
X129248800Y-89203000D01*
X129248800Y-90093000D02*
X135248800Y-90093000D01*
X135248800Y-90093000D02*
X135248800Y-90853000D01*
X135248800Y-90853000D02*
X129248800Y-90853000D01*
X126191729Y-90093000D02*
X126588800Y-90093000D01*
X126191729Y-90853000D02*
X126588800Y-90853000D01*
X126588800Y-91743000D02*
X129248800Y-91743000D01*
X129248800Y-92633000D02*
X135248800Y-92633000D01*
X135248800Y-92633000D02*
X135248800Y-93393000D01*
X135248800Y-93393000D02*
X129248800Y-93393000D01*
X126191729Y-92633000D02*
X126588800Y-92633000D01*
X126191729Y-93393000D02*
X126588800Y-93393000D01*
X126588800Y-94283000D02*
X129248800Y-94283000D01*
X129248800Y-95173000D02*
X135248800Y-95173000D01*
X135248800Y-95173000D02*
X135248800Y-95933000D01*
X135248800Y-95933000D02*
X129248800Y-95933000D01*
X126191729Y-95173000D02*
X126588800Y-95173000D01*
X126191729Y-95933000D02*
X126588800Y-95933000D01*
X126588800Y-96823000D02*
X129248800Y-96823000D01*
X129248800Y-97713000D02*
X135248800Y-97713000D01*
X135248800Y-97713000D02*
X135248800Y-98473000D01*
X135248800Y-98473000D02*
X129248800Y-98473000D01*
X126191729Y-97713000D02*
X126588800Y-97713000D01*
X126191729Y-98473000D02*
X126588800Y-98473000D01*
X123878800Y-72693000D02*
X123878800Y-71423000D01*
X123878800Y-71423000D02*
X125148800Y-71423000D01*
%TO.C,FB1*%
X88014422Y-75967600D02*
X87215178Y-75967600D01*
X88014422Y-74847600D02*
X87215178Y-74847600D01*
%TO.C,F1*%
X87422348Y-76821800D02*
X90194852Y-76821800D01*
X87422348Y-80241800D02*
X90194852Y-80241800D01*
%TO.C,D3*%
X107380000Y-101017500D02*
X107380000Y-98332500D01*
X107380000Y-98332500D02*
X105460000Y-98332500D01*
X105460000Y-98332500D02*
X105460000Y-101017500D01*
%TO.C,D2*%
X109510000Y-101020000D02*
X109510000Y-98335000D01*
X109510000Y-98335000D02*
X107590000Y-98335000D01*
X107590000Y-98335000D02*
X107590000Y-101020000D01*
%TO.C,D1*%
X91235300Y-73980000D02*
X93920300Y-73980000D01*
X93920300Y-73980000D02*
X93920300Y-72060000D01*
X93920300Y-72060000D02*
X91235300Y-72060000D01*
%TO.C,C4*%
X102995000Y-92688748D02*
X102995000Y-93211252D01*
X101525000Y-92688748D02*
X101525000Y-93211252D01*
%TO.C,C3*%
X96452400Y-76111548D02*
X96452400Y-76634052D01*
X94982400Y-76111548D02*
X94982400Y-76634052D01*
%TO.C,C2*%
X98611400Y-76136948D02*
X98611400Y-76659452D01*
X97141400Y-76136948D02*
X97141400Y-76659452D01*
%TO.C,C1*%
X94141000Y-76075948D02*
X94141000Y-76598452D01*
X92671000Y-76075948D02*
X92671000Y-76598452D01*
%TD*%
M02*
