%TF.GenerationSoftware,KiCad,Pcbnew,(5.1.10)-1*%
%TF.CreationDate,2021-09-17T22:01:12+03:00*%
%TF.ProjectId,G800Interface,47383030-496e-4746-9572-666163652e6b,rev?*%
%TF.SameCoordinates,Original*%
%TF.FileFunction,Legend,Bot*%
%TF.FilePolarity,Positive*%
%FSLAX46Y46*%
G04 Gerber Fmt 4.6, Leading zero omitted, Abs format (unit mm)*
G04 Created by KiCad (PCBNEW (5.1.10)-1) date 2021-09-17 22:01:12*
%MOMM*%
%LPD*%
G01*
G04 APERTURE LIST*
%ADD10C,0.150000*%
%ADD11C,0.120000*%
G04 APERTURE END LIST*
D10*
X97400000Y-97791428D02*
X96638095Y-97791428D01*
X97019047Y-98172380D02*
X97019047Y-97410476D01*
X96257142Y-97172380D02*
X95638095Y-97172380D01*
X95971428Y-97553333D01*
X95828571Y-97553333D01*
X95733333Y-97600952D01*
X95685714Y-97648571D01*
X95638095Y-97743809D01*
X95638095Y-97981904D01*
X95685714Y-98077142D01*
X95733333Y-98124761D01*
X95828571Y-98172380D01*
X96114285Y-98172380D01*
X96209523Y-98124761D01*
X96257142Y-98077142D01*
X95209523Y-98077142D02*
X95161904Y-98124761D01*
X95209523Y-98172380D01*
X95257142Y-98124761D01*
X95209523Y-98077142D01*
X95209523Y-98172380D01*
X94828571Y-97172380D02*
X94209523Y-97172380D01*
X94542857Y-97553333D01*
X94400000Y-97553333D01*
X94304761Y-97600952D01*
X94257142Y-97648571D01*
X94209523Y-97743809D01*
X94209523Y-97981904D01*
X94257142Y-98077142D01*
X94304761Y-98124761D01*
X94400000Y-98172380D01*
X94685714Y-98172380D01*
X94780952Y-98124761D01*
X94828571Y-98077142D01*
X93923809Y-97172380D02*
X93590476Y-98172380D01*
X93257142Y-97172380D01*
X93471904Y-92360000D02*
X93567142Y-92312380D01*
X93710000Y-92312380D01*
X93852857Y-92360000D01*
X93948095Y-92455238D01*
X93995714Y-92550476D01*
X94043333Y-92740952D01*
X94043333Y-92883809D01*
X93995714Y-93074285D01*
X93948095Y-93169523D01*
X93852857Y-93264761D01*
X93710000Y-93312380D01*
X93614761Y-93312380D01*
X93471904Y-93264761D01*
X93424285Y-93217142D01*
X93424285Y-92883809D01*
X93614761Y-92883809D01*
X92995714Y-93312380D02*
X92995714Y-92312380D01*
X92424285Y-93312380D01*
X92424285Y-92312380D01*
X91948095Y-93312380D02*
X91948095Y-92312380D01*
X91710000Y-92312380D01*
X91567142Y-92360000D01*
X91471904Y-92455238D01*
X91424285Y-92550476D01*
X91376666Y-92740952D01*
X91376666Y-92883809D01*
X91424285Y-93074285D01*
X91471904Y-93169523D01*
X91567142Y-93264761D01*
X91710000Y-93312380D01*
X91948095Y-93312380D01*
X98425714Y-79341428D02*
X97663809Y-79341428D01*
X98044761Y-79722380D02*
X98044761Y-78960476D01*
X96711428Y-78722380D02*
X97187619Y-78722380D01*
X97235238Y-79198571D01*
X97187619Y-79150952D01*
X97092380Y-79103333D01*
X96854285Y-79103333D01*
X96759047Y-79150952D01*
X96711428Y-79198571D01*
X96663809Y-79293809D01*
X96663809Y-79531904D01*
X96711428Y-79627142D01*
X96759047Y-79674761D01*
X96854285Y-79722380D01*
X97092380Y-79722380D01*
X97187619Y-79674761D01*
X97235238Y-79627142D01*
X96378095Y-78722380D02*
X96044761Y-79722380D01*
X95711428Y-78722380D01*
X90713333Y-75412380D02*
X90380000Y-76412380D01*
X90046666Y-75412380D01*
X89380000Y-75888571D02*
X89237142Y-75936190D01*
X89189523Y-75983809D01*
X89141904Y-76079047D01*
X89141904Y-76221904D01*
X89189523Y-76317142D01*
X89237142Y-76364761D01*
X89332380Y-76412380D01*
X89713333Y-76412380D01*
X89713333Y-75412380D01*
X89380000Y-75412380D01*
X89284761Y-75460000D01*
X89237142Y-75507619D01*
X89189523Y-75602857D01*
X89189523Y-75698095D01*
X89237142Y-75793333D01*
X89284761Y-75840952D01*
X89380000Y-75888571D01*
X89713333Y-75888571D01*
X88713333Y-75412380D02*
X88713333Y-76221904D01*
X88665714Y-76317142D01*
X88618095Y-76364761D01*
X88522857Y-76412380D01*
X88332380Y-76412380D01*
X88237142Y-76364761D01*
X88189523Y-76317142D01*
X88141904Y-76221904D01*
X88141904Y-75412380D01*
X87713333Y-76364761D02*
X87570476Y-76412380D01*
X87332380Y-76412380D01*
X87237142Y-76364761D01*
X87189523Y-76317142D01*
X87141904Y-76221904D01*
X87141904Y-76126666D01*
X87189523Y-76031428D01*
X87237142Y-75983809D01*
X87332380Y-75936190D01*
X87522857Y-75888571D01*
X87618095Y-75840952D01*
X87665714Y-75793333D01*
X87713333Y-75698095D01*
X87713333Y-75602857D01*
X87665714Y-75507619D01*
X87618095Y-75460000D01*
X87522857Y-75412380D01*
X87284761Y-75412380D01*
X87141904Y-75460000D01*
D11*
%TO.C,TP4*%
X96910000Y-92810000D02*
G75*
G03*
X96910000Y-92810000I-1200000J0D01*
G01*
%TO.C,TP3*%
X100230000Y-97740000D02*
G75*
G03*
X100230000Y-97740000I-1200000J0D01*
G01*
%TO.C,TP2*%
X89960000Y-78510000D02*
G75*
G03*
X89960000Y-78510000I-1200000J0D01*
G01*
%TO.C,TP1*%
X98350000Y-81360000D02*
G75*
G03*
X98350000Y-81360000I-1200000J0D01*
G01*
%TD*%
M02*
